<?xml version="1.0" encoding="UTF-8" standalone="no"?>
<svg
   xmlns:dc="http://purl.org/dc/elements/1.1/"
   xmlns:cc="http://creativecommons.org/ns#"
   xmlns:rdf="http://www.w3.org/1999/02/22-rdf-syntax-ns#"
   xmlns:svg="http://www.w3.org/2000/svg"
   xmlns="http://www.w3.org/2000/svg"
   xmlns:sodipodi="http://sodipodi.sourceforge.net/DTD/sodipodi-0.dtd"
   xmlns:inkscape="http://www.inkscape.org/namespaces/inkscape"
   width="512"
   height="128"
   viewBox="0 0 512 128"
   version="1.1"
   id="svg8"
   inkscape:version="1.0 (4035a4fb49, 2020-05-01)"
   sodipodi:docname="ev-calc-banner.svg"
   inkscape:export-filename="ev-calc-icon.png"
   inkscape:export-xdpi="96"
   inkscape:export-ydpi="96">
  <title
     id="title908">Oil versus Electricity icon</title>
  <defs
     id="defs2" />
  <sodipodi:namedview
     inkscape:bbox-nodes="true"
     inkscape:bbox-paths="true"
     inkscape:snap-bbox="true"
     inkscape:snap-page="true"
     id="base"
     pagecolor="#ffffff"
     bordercolor="#666666"
     borderopacity="1.0"
     inkscape:pageopacity="0.0"
     inkscape:pageshadow="2"
     inkscape:zoom="1.4958448"
     inkscape:cx="353.53113"
     inkscape:cy="98.666345"
     inkscape:document-units="px"
     inkscape:current-layer="text80"
     inkscape:document-rotation="0"
     showgrid="false"
     units="px"
     inkscape:window-width="1920"
     inkscape:window-height="1008"
     inkscape:window-x="0"
     inkscape:window-y="0"
     inkscape:window-maximized="1"
     inkscape:snap-center="true">
    <inkscape:grid
       type="xygrid"
       id="grid10"
       spacingx="8"
       spacingy="8"
       empspacing="8" />
  </sodipodi:namedview>
  <metadata
     id="metadata5">
    <rdf:RDF>
      <cc:Work
         rdf:about="">
        <dc:format>image/svg+xml</dc:format>
        <dc:type
           rdf:resource="http://purl.org/dc/dcmitype/StillImage" />
        <dc:title>Oil versus Electricity icon</dc:title>
        <dc:creator>
          <cc:Agent>
            <dc:title>Pierre Haessig</dc:title>
          </cc:Agent>
        </dc:creator>
        <dc:rights>
          <cc:Agent>
            <dc:title>CC-BY 4.0</dc:title>
          </cc:Agent>
        </dc:rights>
        <dc:date>2020-08</dc:date>
        <dc:description>Icon for the Electric vs Thermal vehicle calculator app (https://pierreh.eu/ev-calc-app)</dc:description>
      </cc:Work>
    </rdf:RDF>
  </metadata>
  <g
     style="display:inline"
     inkscape:groupmode="layer"
     id="layer2"
     inkscape:label="Drawing">
    <g
       style="stroke-width:2"
       transform="scale(0.5)"
       id="g48">
      <circle
         r="128"
         cy="128"
         cx="128"
         id="path34"
         style="display:inline;fill:#000000;stroke-width:2.64566;stroke-linecap:round;stroke-linejoin:round" />
      <path
         inkscape:transform-center-y="2.1807471"
         transform="rotate(15)"
         inkscape:transform-center-x="-47.435587"
         d="m 156.76735,-37.490334 a 128,128 0 0 1 128,128 128,128 0 0 1 -128,128.000004"
         sodipodi:arc-type="arc"
         sodipodi:open="true"
         sodipodi:end="1.5707963"
         sodipodi:start="4.712389"
         sodipodi:ry="128"
         sodipodi:rx="128"
         sodipodi:cy="90.509666"
         sodipodi:cx="156.76735"
         sodipodi:type="arc"
         style="display:inline;fill:#1a5fb4;stroke-width:2.64566;stroke-linecap:round;stroke-linejoin:round"
         id="circle58" />
      <g
         transform="matrix(11.269294,0,0,11.269294,-749.02382,-232.6174)"
         style="display:inline;fill:#ffffff;stroke-width:0.670764"
         id="g1295">
        <path
           d="m 70,26.999998 h 5 v 10 h -5 z"
           style="color:#000000;clip-rule:nonzero;display:inline;overflow:visible;visibility:visible;opacity:1;isolation:auto;mix-blend-mode:normal;color-interpolation:sRGB;color-interpolation-filters:linearRGB;solid-color:#000000;solid-opacity:1;vector-effect:none;fill:#ffffff;fill-opacity:1;fill-rule:nonzero;stroke:none;stroke-width:0.157211;stroke-linecap:butt;stroke-linejoin:miter;stroke-miterlimit:4;stroke-dasharray:none;stroke-dashoffset:0;stroke-opacity:1;marker:none;marker-start:none;marker-end:none;color-rendering:auto;image-rendering:auto;shape-rendering:auto;text-rendering:auto;enable-background:accumulate"
           id="rect1253" />
        <path
           id="path906"
           d="M 70,31.5 A 0.5,0.5 0 0 0 69.5,32 0.5,0.5 0 0 0 70,32.5 h 5 A 0.5,0.5 0 0 0 75.5,32 0.5,0.5 0 0 0 75,31.5 Z"
           style="color:#000000;font-style:normal;font-variant:normal;font-weight:normal;font-stretch:normal;font-size:medium;line-height:normal;font-family:sans-serif;font-variant-ligatures:normal;font-variant-position:normal;font-variant-caps:normal;font-variant-numeric:normal;font-variant-alternates:normal;font-variant-east-asian:normal;font-feature-settings:normal;font-variation-settings:normal;text-indent:0;text-align:start;text-decoration:none;text-decoration-line:none;text-decoration-style:solid;text-decoration-color:#000000;letter-spacing:normal;word-spacing:normal;text-transform:none;writing-mode:lr-tb;direction:ltr;text-orientation:mixed;dominant-baseline:auto;baseline-shift:baseline;text-anchor:start;white-space:normal;shape-padding:0;shape-margin:0;inline-size:0;clip-rule:nonzero;display:inline;overflow:visible;visibility:visible;opacity:1;isolation:auto;mix-blend-mode:normal;color-interpolation:sRGB;color-interpolation-filters:linearRGB;solid-color:#000000;solid-opacity:1;vector-effect:none;fill:#ffffff;fill-opacity:1;fill-rule:nonzero;stroke:none;stroke-width:0.670764;stroke-linecap:round;stroke-linejoin:miter;stroke-miterlimit:4;stroke-dasharray:none;stroke-dashoffset:0;stroke-opacity:1;color-rendering:auto;image-rendering:auto;shape-rendering:auto;text-rendering:auto;enable-background:accumulate;stop-color:#000000;stop-opacity:1" />
        <path
           sodipodi:nodetypes="ccccccc"
           inkscape:connector-curvature="0"
           id="circle1263"
           d="m 72.499938,30.499984 c -0.41256,0.443639 -0.930583,1.058384 -0.988496,1.856946 -0.0072,0.04738 -0.01101,0.09522 -0.01138,0.143144 3.4e-5,0.552236 0.447701,0.999904 0.999939,0.999939 0.552237,-3.4e-5 0.999904,-0.447702 0.999938,-0.999939 -5.29e-4,-0.04758 -0.0042,-0.09507 -0.01138,-0.142111 -0.05754,-0.799065 -0.575906,-1.41415 -0.988642,-1.857979 z"
           style="color:#000000;clip-rule:nonzero;display:inline;overflow:visible;visibility:visible;opacity:1;isolation:auto;mix-blend-mode:normal;color-interpolation:sRGB;color-interpolation-filters:linearRGB;solid-color:#000000;solid-opacity:1;vector-effect:none;fill:#000000;fill-opacity:1;fill-rule:nonzero;stroke:none;stroke-width:0.157211;stroke-linecap:butt;stroke-linejoin:miter;stroke-miterlimit:4;stroke-dasharray:none;stroke-dashoffset:0;stroke-opacity:1;marker:none;marker-start:none;marker-end:none;color-rendering:auto;image-rendering:auto;shape-rendering:auto;text-rendering:auto;enable-background:accumulate" />
        <path
           id="path902"
           d="M 70,27 A 0.5,0.5 0 0 0 69.5,27.5 0.5,0.5 0 0 0 70,28 h 5 A 0.5,0.5 0 0 0 75.5,27.5 0.5,0.5 0 0 0 75,27 Z"
           style="color:#000000;font-style:normal;font-variant:normal;font-weight:normal;font-stretch:normal;font-size:medium;line-height:normal;font-family:sans-serif;font-variant-ligatures:normal;font-variant-position:normal;font-variant-caps:normal;font-variant-numeric:normal;font-variant-alternates:normal;font-variant-east-asian:normal;font-feature-settings:normal;font-variation-settings:normal;text-indent:0;text-align:start;text-decoration:none;text-decoration-line:none;text-decoration-style:solid;text-decoration-color:#000000;letter-spacing:normal;word-spacing:normal;text-transform:none;writing-mode:lr-tb;direction:ltr;text-orientation:mixed;dominant-baseline:auto;baseline-shift:baseline;text-anchor:start;white-space:normal;shape-padding:0;shape-margin:0;inline-size:0;clip-rule:nonzero;display:inline;overflow:visible;visibility:visible;opacity:1;isolation:auto;mix-blend-mode:normal;color-interpolation:sRGB;color-interpolation-filters:linearRGB;solid-color:#000000;solid-opacity:1;vector-effect:none;fill:#ffffff;fill-opacity:1;fill-rule:nonzero;stroke:none;stroke-width:0.670764;stroke-linecap:round;stroke-linejoin:miter;stroke-miterlimit:4;stroke-dasharray:none;stroke-dashoffset:0;stroke-opacity:1;color-rendering:auto;image-rendering:auto;shape-rendering:auto;text-rendering:auto;enable-background:accumulate;stop-color:#000000;stop-opacity:1" />
        <path
           id="path898"
           d="M 70,36 A 0.5,0.5 0 0 0 69.5,36.5 0.5,0.5 0 0 0 70,37 h 5 A 0.5,0.5 0 0 0 75.5,36.5 0.5,0.5 0 0 0 75,36 Z"
           style="color:#000000;font-style:normal;font-variant:normal;font-weight:normal;font-stretch:normal;font-size:medium;line-height:normal;font-family:sans-serif;font-variant-ligatures:normal;font-variant-position:normal;font-variant-caps:normal;font-variant-numeric:normal;font-variant-alternates:normal;font-variant-east-asian:normal;font-feature-settings:normal;font-variation-settings:normal;text-indent:0;text-align:start;text-decoration:none;text-decoration-line:none;text-decoration-style:solid;text-decoration-color:#000000;letter-spacing:normal;word-spacing:normal;text-transform:none;writing-mode:lr-tb;direction:ltr;text-orientation:mixed;dominant-baseline:auto;baseline-shift:baseline;text-anchor:start;white-space:normal;shape-padding:0;shape-margin:0;inline-size:0;clip-rule:nonzero;display:inline;overflow:visible;visibility:visible;opacity:1;isolation:auto;mix-blend-mode:normal;color-interpolation:sRGB;color-interpolation-filters:linearRGB;solid-color:#000000;solid-opacity:1;vector-effect:none;fill:#ffffff;fill-opacity:1;fill-rule:nonzero;stroke:none;stroke-width:0.670764;stroke-linecap:round;stroke-linejoin:miter;stroke-miterlimit:4;stroke-dasharray:none;stroke-dashoffset:0;stroke-opacity:1;color-rendering:auto;image-rendering:auto;shape-rendering:auto;text-rendering:auto;enable-background:accumulate;stop-color:#000000;stop-opacity:1" />
      </g>
      <path
         style="color:#000000;clip-rule:nonzero;display:inline;overflow:visible;visibility:visible;opacity:1;isolation:auto;mix-blend-mode:normal;color-interpolation:sRGB;color-interpolation-filters:linearRGB;solid-color:#000000;solid-opacity:1;fill:#ffffff;fill-opacity:1;fill-rule:nonzero;stroke:none;stroke-width:1.77165;stroke-linecap:butt;stroke-linejoin:miter;stroke-miterlimit:4;stroke-dasharray:none;stroke-dashoffset:0;stroke-opacity:1;color-rendering:auto;image-rendering:auto;shape-rendering:auto;text-rendering:auto;enable-background:accumulate"
         d="m 176.22479,56.136635 -28.62115,85.863375 h 28.62115 l -28.62115,85.86336 67.60792,-100.7383 h -28.62122 l 31.05531,-70.988435 z"
         id="path1222"
         inkscape:connector-curvature="0"
         sodipodi:nodetypes="cccccccc" />
    </g>
  </g>
  <g
     style="display:none"
     inkscape:label="Editable text"
     id="layer1"
     inkscape:groupmode="layer">
    <g
       id="g55"
       transform="translate(-2,2)"
       style="display:inline">
      <text
         id="text49"
         y="95.112579"
         x="139.12796"
         style="font-style:normal;font-variant:normal;font-weight:normal;font-stretch:normal;font-size:32px;line-height:1.25;font-family:Gentium;-inkscape-font-specification:Gentium;letter-spacing:0px;word-spacing:0px;fill:#000000;fill-opacity:1;stroke:none"
         xml:space="preserve"><tspan
           id="tspan47"
           style="font-style:italic;font-variant:normal;font-weight:normal;font-stretch:normal;font-family:Lato;-inkscape-font-specification:Lato;fill:#000000;fill-opacity:1"
           y="95.112579"
           x="139.12796"
           sodipodi:role="line"><tspan
             id="tspan45"
             style="font-style:normal;fill:#000000">calculator</tspan></tspan></text>
      <text
         id="text53"
         y="95.112579"
         x="282.70767"
         style="font-style:italic;font-variant:normal;font-weight:normal;font-stretch:normal;font-size:32px;line-height:1.25;font-family:Lato;-inkscape-font-specification:'Lato Italic';letter-spacing:0px;word-spacing:0px;fill:#1a5fb4;fill-opacity:1;stroke:none"
         xml:space="preserve"><tspan
           id="tspan51"
           style="font-style:italic;font-variant:normal;font-weight:normal;font-stretch:normal;font-family:Lato;-inkscape-font-specification:'Lato Italic';fill:#1a5fb4;fill-opacity:1"
           y="95.112579"
           x="282.70767"
           sodipodi:role="line">with uncertainty</tspan></text>
    </g>
    <text
       xml:space="preserve"
       style="font-style:normal;font-variant:normal;font-weight:normal;font-stretch:normal;font-size:32px;line-height:1.25;font-family:Gentium;-inkscape-font-specification:Gentium;letter-spacing:0px;word-spacing:0px;display:inline;fill:#000000;fill-opacity:1;stroke:none"
       x="135.12796"
       y="51.112595"
       id="text61"><tspan
         sodipodi:role="line"
         x="135.12796"
         y="51.112595"
         style="font-style:normal;font-variant:normal;font-weight:normal;font-stretch:normal;font-family:Lato;-inkscape-font-specification:Lato"
         id="tspan59">Electric <tspan
   style="font-style:normal;font-variant:normal;font-weight:bold;font-stretch:normal;font-family:Lato;-inkscape-font-specification:'Lato Bold'"
   id="tspan57">vs</tspan> Thermal vehicle</tspan></text>
  </g>
  <g
     inkscape:groupmode="layer"
     id="g90"
     inkscape:label="Frozen text"
     style="display:inline">
    <g
       style="display:inline"
       transform="translate(-2,2)"
       id="g82">
      <g
         style="font-style:normal;font-variant:normal;font-weight:normal;font-stretch:normal;font-size:32px;line-height:1.25;font-family:Gentium;-inkscape-font-specification:Gentium;letter-spacing:0px;word-spacing:0px;fill:#000000;fill-opacity:1;stroke:none"
         id="text76"
         aria-label="calculator">
        <path
           id="path141"
           style="font-style:normal;fill:#000000"
           d="m 152.66396,81.784579 q -0.128,0.176 -0.256,0.272 -0.128,0.096 -0.352,0.096 -0.24,0 -0.528,-0.192 -0.288,-0.208 -0.72,-0.448 -0.416,-0.24 -1.04,-0.432 -0.608,-0.208 -1.504,-0.208 -1.2,0 -2.112,0.432 -0.912,0.416 -1.536,1.216 -0.608,0.8 -0.928,1.936 -0.304,1.136 -0.304,2.544 0,1.472 0.336,2.624 0.336,1.136 0.944,1.92 0.624,0.768 1.488,1.184 0.88,0.4 1.968,0.4 1.04,0 1.712,-0.24 0.672,-0.256 1.104,-0.56 0.448,-0.304 0.736,-0.544 0.304,-0.256 0.592,-0.256 0.352,0 0.544,0.272 l 0.8,1.04 q -0.528,0.656 -1.2,1.12 -0.672,0.464 -1.456,0.784 -0.768,0.304 -1.616,0.448 -0.848,0.144 -1.728,0.144 -1.52,0 -2.832,-0.56 -1.296,-0.56 -2.256,-1.616 -0.96,-1.072 -1.504,-2.624 -0.544,-1.552 -0.544,-3.536 0,-1.808 0.496,-3.344 0.512,-1.536 1.472,-2.64 0.976,-1.12 2.384,-1.744 1.424,-0.624 3.264,-0.624 1.712,0 3.008,0.56 1.312,0.544 2.32,1.552 z" />
        <path
           id="path143"
           style="font-style:normal;fill:#000000"
           d="m 166.96823,95.112579 q -0.416,0 -0.64,-0.128 -0.224,-0.144 -0.352,-0.544 l -0.32,-1.52 q -0.64,0.576 -1.264,1.04 -0.608,0.448 -1.28,0.768 -0.656,0.304 -1.424,0.464 -0.752,0.176 -1.68,0.176 -0.944,0 -1.776,-0.256 -0.832,-0.272 -1.456,-0.8 -0.608,-0.528 -0.976,-1.328 -0.352,-0.816 -0.352,-1.92 0,-0.96 0.528,-1.84 0.528,-0.896 1.712,-1.584 1.184,-0.688 3.088,-1.12 1.904,-0.448 4.672,-0.512 v -1.264 q 0,-1.888 -0.816,-2.848 -0.816,-0.976 -2.384,-0.976 -1.056,0 -1.776,0.272 -0.704,0.256 -1.232,0.592 -0.512,0.32 -0.896,0.592 -0.368,0.256 -0.736,0.256 -0.288,0 -0.496,-0.144 -0.208,-0.16 -0.352,-0.384 l -0.512,-0.912 q 1.344,-1.296 2.896,-1.936 1.552,-0.64 3.44,-0.64 1.36,0 2.416,0.448 1.056,0.448 1.776,1.248 0.72,0.8 1.088,1.936 0.368,1.136 0.368,2.496 v 10.368 z m -6.112,-1.744 q 0.752,0 1.376,-0.144 0.624,-0.16 1.168,-0.432 0.56,-0.288 1.056,-0.688 0.512,-0.416 0.992,-0.928 v -3.36 q -1.968,0.064 -3.36,0.32 -1.376,0.24 -2.256,0.64 -0.864,0.4 -1.264,0.944 -0.384,0.544 -0.384,1.216 0,0.64 0.208,1.104 0.208,0.464 0.56,0.768 0.368,0.288 0.848,0.432 0.496,0.128 1.056,0.128 z" />
        <path
           id="path145"
           style="font-style:normal;fill:#000000"
           d="m 175.51253,71.544579 v 23.568 h -2.848 v -23.568 z" />
        <path
           id="path147"
           style="font-style:normal;fill:#000000"
           d="m 191.40029,81.784579 q -0.128,0.176 -0.256,0.272 -0.128,0.096 -0.352,0.096 -0.24,0 -0.528,-0.192 -0.288,-0.208 -0.72,-0.448 -0.416,-0.24 -1.04,-0.432 -0.608,-0.208 -1.504,-0.208 -1.2,0 -2.112,0.432 -0.912,0.416 -1.536,1.216 -0.608,0.8 -0.928,1.936 -0.304,1.136 -0.304,2.544 0,1.472 0.336,2.624 0.336,1.136 0.944,1.92 0.624,0.768 1.488,1.184 0.88,0.4 1.968,0.4 1.04,0 1.712,-0.24 0.672,-0.256 1.104,-0.56 0.448,-0.304 0.736,-0.544 0.304,-0.256 0.592,-0.256 0.352,0 0.544,0.272 l 0.8,1.04 q -0.528,0.656 -1.2,1.12 -0.672,0.464 -1.456,0.784 -0.768,0.304 -1.616,0.448 -0.848,0.144 -1.728,0.144 -1.52,0 -2.832,-0.56 -1.296,-0.56 -2.256,-1.616 -0.96,-1.072 -1.504,-2.624 -0.544,-1.552 -0.544,-3.536 0,-1.808 0.496,-3.344 0.512,-1.536 1.472,-2.64 0.976,-1.12 2.384,-1.744 1.424,-0.624 3.264,-0.624 1.712,0 3.008,0.56 1.312,0.544 2.32,1.552 z" />
        <path
           id="path149"
           style="font-style:normal;fill:#000000"
           d="m 198.08856,78.904579 v 10.336 q 0,1.84 0.832,2.848 0.848,1.008 2.576,1.008 1.248,0 2.352,-0.592 1.104,-0.592 2.032,-1.648 v -11.952 h 2.848 v 16.208 h -1.696 q -0.608,0 -0.768,-0.592 l -0.224,-1.744 q -1.056,1.168 -2.368,1.888 -1.312,0.704 -3.008,0.704 -1.328,0 -2.352,-0.432 -1.008,-0.448 -1.696,-1.248 -0.688,-0.8 -1.04,-1.936 -0.336,-1.136 -0.336,-2.512 v -10.336 z" />
        <path
           id="path151"
           style="font-style:normal;fill:#000000"
           d="m 216.18441,71.544579 v 23.568 h -2.848 v -23.568 z" />
        <path
           id="path153"
           style="font-style:normal;fill:#000000"
           d="m 231.09616,95.112579 q -0.416,0 -0.64,-0.128 -0.224,-0.144 -0.352,-0.544 l -0.32,-1.52 q -0.64,0.576 -1.264,1.04 -0.608,0.448 -1.28,0.768 -0.656,0.304 -1.424,0.464 -0.752,0.176 -1.68,0.176 -0.944,0 -1.776,-0.256 -0.832,-0.272 -1.456,-0.8 -0.608,-0.528 -0.976,-1.328 -0.352,-0.816 -0.352,-1.92 0,-0.96 0.528,-1.84 0.528,-0.896 1.712,-1.584 1.184,-0.688 3.088,-1.12 1.904,-0.448 4.672,-0.512 v -1.264 q 0,-1.888 -0.816,-2.848 -0.816,-0.976 -2.384,-0.976 -1.056,0 -1.776,0.272 -0.704,0.256 -1.232,0.592 -0.512,0.32 -0.896,0.592 -0.368,0.256 -0.736,0.256 -0.288,0 -0.496,-0.144 -0.208,-0.16 -0.352,-0.384 l -0.512,-0.912 q 1.344,-1.296 2.896,-1.936 1.552,-0.64 3.44,-0.64 1.36,0 2.416,0.448 1.056,0.448 1.776,1.248 0.72,0.8 1.088,1.936 0.368,1.136 0.368,2.496 v 10.368 z m -6.112,-1.744 q 0.752,0 1.376,-0.144 0.624,-0.16 1.168,-0.432 0.56,-0.288 1.056,-0.688 0.512,-0.416 0.992,-0.928 v -3.36 q -1.968,0.064 -3.36,0.32 -1.376,0.24 -2.256,0.64 -0.864,0.4 -1.264,0.944 -0.384,0.544 -0.384,1.216 0,0.64 0.208,1.104 0.208,0.464 0.56,0.768 0.368,0.288 0.848,0.432 0.496,0.128 1.056,0.128 z" />
        <path
           id="path155"
           style="font-style:normal;fill:#000000"
           d="m 241.46445,95.368579 q -1.92,0 -2.96,-1.072 -1.024,-1.072 -1.024,-3.088 v -9.92 h -1.952 q -0.256,0 -0.432,-0.144 -0.176,-0.16 -0.176,-0.48 v -1.136 l 2.656,-0.336 0.656,-5.008 q 0.048,-0.24 0.208,-0.384 0.176,-0.16 0.448,-0.16 h 1.44 v 5.584 h 4.688 v 2.064 h -4.688 v 9.728 q 0,1.024 0.496,1.52 0.496,0.496 1.28,0.496 0.448,0 0.768,-0.112 0.336,-0.128 0.576,-0.272 0.24,-0.144 0.4,-0.256 0.176,-0.128 0.304,-0.128 0.224,0 0.4,0.272 l 0.832,1.36 q -0.736,0.688 -1.776,1.088 -1.04,0.384 -2.144,0.384 z" />
        <path
           id="path157"
           style="font-style:normal;fill:#000000"
           d="m 254.79213,78.648579 q 1.776,0 3.2,0.592 1.424,0.592 2.432,1.68 1.008,1.088 1.536,2.64 0.544,1.536 0.544,3.44 0,1.92 -0.544,3.456 -0.528,1.536 -1.536,2.624 -1.008,1.088 -2.432,1.68 -1.424,0.576 -3.2,0.576 -1.792,0 -3.232,-0.576 -1.424,-0.592 -2.432,-1.68 -1.008,-1.088 -1.552,-2.624 -0.528,-1.536 -0.528,-3.456 0,-1.904 0.528,-3.44 0.544,-1.552 1.552,-2.64 1.008,-1.088 2.432,-1.68 1.44,-0.592 3.232,-0.592 z m 0,14.464 q 2.4,0 3.584,-1.6 1.184,-1.616 1.184,-4.496 0,-2.896 -1.184,-4.512 -1.184,-1.616 -3.584,-1.616 -1.216,0 -2.128,0.416 -0.896,0.416 -1.504,1.2 -0.592,0.784 -0.896,1.936 -0.288,1.136 -0.288,2.576 0,2.88 1.184,4.496 1.2,1.6 3.632,1.6 z" />
        <path
           id="path159"
           style="font-style:normal;fill:#000000"
           d="m 266.10369,95.112579 v -16.208 h 1.632 q 0.464,0 0.64,0.176 0.176,0.176 0.24,0.608 l 0.176,2.464 q 0.768,-1.664 1.888,-2.592 1.136,-0.944 2.752,-0.944 0.512,0 0.976,0.112 0.48,0.112 0.848,0.352 l -0.208,2.128 q -0.096,0.4 -0.48,0.4 -0.224,0 -0.656,-0.096 -0.432,-0.096 -0.976,-0.096 -0.768,0 -1.376,0.24 -0.608,0.224 -1.088,0.672 -0.464,0.432 -0.832,1.072 -0.368,0.64 -0.672,1.472 v 10.24 z" />
      </g>
      <g
         style="font-style:italic;font-variant:normal;font-weight:normal;font-stretch:normal;font-size:32px;line-height:1.25;font-family:Lato;-inkscape-font-specification:'Lato Italic';letter-spacing:0px;word-spacing:0px;fill:#1a5fb4;fill-opacity:1;stroke:none"
         id="text80"
         aria-label="with uncertainty">
        <path
           id="path162"
           style="font-style:italic;font-variant:normal;font-weight:normal;font-stretch:normal;font-family:Lato;-inkscape-font-specification:'Lato Italic';fill:#1a5fb4;fill-opacity:1"
           d="m 283.95567,78.904579 h 2.128 q 0.32,0 0.512,0.16 0.192,0.16 0.256,0.432 l 1.488,10.432 q 0.032,0.56 0.064,1.088 0.032,0.528 0.048,1.04 0.176,-0.512 0.384,-1.04 0.208,-0.528 0.432,-1.088 l 4.432,-10.496 q 0.08,-0.24 0.304,-0.4 0.224,-0.16 0.496,-0.16 h 1.184 q 0.304,0 0.48,0.16 0.176,0.16 0.208,0.4 l 1.824,10.496 q 0.08,0.56 0.144,1.088 0.064,0.512 0.112,1.024 0.144,-0.512 0.304,-1.024 0.176,-0.528 0.368,-1.088 l 4.112,-10.432 q 0.08,-0.256 0.304,-0.416 0.24,-0.176 0.512,-0.176 h 2.064 l -6.8,16.208 h -2.16 q -0.384,0 -0.48,-0.544 l -1.968,-10.992 q -0.032,-0.256 -0.064,-0.512 -0.032,-0.256 -0.048,-0.512 -0.08,0.272 -0.176,0.528 -0.096,0.24 -0.208,0.512 l -4.672,10.976 q -0.224,0.544 -0.656,0.544 h -2.08 z" />
        <path
           id="path164"
           style="font-style:italic;font-variant:normal;font-weight:normal;font-stretch:normal;font-family:Lato;-inkscape-font-specification:'Lato Italic';fill:#1a5fb4;fill-opacity:1"
           d="m 311.69941,78.904579 -1.952,16.208 h -2.8 l 1.952,-16.208 z m 1.088,-5.088 q 0,0.416 -0.176,0.784 -0.16,0.352 -0.448,0.64 -0.272,0.272 -0.64,0.432 -0.352,0.16 -0.736,0.16 -0.368,0 -0.72,-0.16 -0.352,-0.16 -0.624,-0.432 -0.256,-0.288 -0.416,-0.64 -0.16,-0.368 -0.16,-0.784 0,-0.416 0.16,-0.784 0.16,-0.368 0.432,-0.64 0.272,-0.288 0.624,-0.448 0.352,-0.176 0.72,-0.176 0.384,0 0.736,0.16 0.368,0.16 0.64,0.448 0.272,0.272 0.432,0.656 0.176,0.368 0.176,0.784 z" />
        <path
           id="path166"
           style="font-style:italic;font-variant:normal;font-weight:normal;font-stretch:normal;font-family:Lato;-inkscape-font-specification:'Lato Italic';fill:#1a5fb4;fill-opacity:1"
           d="m 315.42777,92.056579 q 0,-0.096 0,-0.24 0,-0.16 0.016,-0.448 0.032,-0.288 0.08,-0.752 0.064,-0.464 0.16,-1.216 l 0.992,-8.112 h -1.808 q -0.224,0 -0.368,-0.144 -0.128,-0.16 -0.096,-0.48 l 0.128,-1.136 2.496,-0.336 1.216,-5.008 q 0.08,-0.24 0.24,-0.384 0.176,-0.16 0.432,-0.16 h 1.488 l -0.688,5.584 h 4.256 l -0.24,2.064 h -4.272 l -0.976,7.968 q -0.08,0.656 -0.128,1.056 -0.048,0.4 -0.08,0.64 -0.016,0.24 -0.032,0.336 0,0.096 0,0.144 0,0.816 0.384,1.216 0.384,0.384 1.024,0.384 0.432,0 0.736,-0.112 0.32,-0.128 0.56,-0.272 0.24,-0.144 0.4,-0.256 0.16,-0.128 0.272,-0.128 0.144,0 0.208,0.064 0.08,0.064 0.144,0.208 l 0.608,1.36 q -0.784,0.688 -1.792,1.088 -0.992,0.384 -2,0.384 -1.552,0 -2.448,-0.848 -0.88,-0.848 -0.912,-2.464 z" />
        <path
           id="path168"
           style="font-style:italic;font-variant:normal;font-weight:normal;font-stretch:normal;font-family:Lato;-inkscape-font-specification:'Lato Italic';fill:#1a5fb4;fill-opacity:1"
           d="m 325.49152,95.112579 2.848,-23.568 h 2.848 l -1.328,10.944 q 1.248,-1.888 2.784,-2.848 1.552,-0.976 3.168,-0.976 1.04,0 1.824,0.416 0.784,0.4 1.264,1.184 0.496,0.784 0.672,1.936 0.176,1.136 0,2.592 l -1.216,10.32 h -2.848 l 1.216,-10.32 q 0.24,-1.92 -0.224,-2.848 -0.464,-0.928 -1.728,-0.928 -0.72,0 -1.488,0.4 -0.768,0.384 -1.488,1.12 -0.704,0.72 -1.344,1.744 -0.624,1.024 -1.088,2.288 l -1.04,8.544 z" />
        <path
           id="path170"
           style="font-style:italic;font-variant:normal;font-weight:normal;font-stretch:normal;font-family:Lato;-inkscape-font-specification:'Lato Italic';fill:#1a5fb4;fill-opacity:1"
           d="m 354.54813,78.904579 -1.216,10.304 q -0.224,1.904 0.224,2.832 0.464,0.928 1.728,0.928 0.736,0 1.504,-0.4 0.784,-0.4 1.504,-1.136 0.736,-0.736 1.36,-1.776 0.624,-1.04 1.088,-2.32 l 1.008,-8.432 h 2.832 l -1.952,16.208 h -1.408 q -1.04,0 -1.04,-1.024 l 0.24,-2.944 q -1.296,2.064 -2.896,3.136 -1.6,1.056 -3.296,1.056 -1.024,0 -1.808,-0.4 -0.784,-0.416 -1.28,-1.2 -0.48,-0.784 -0.656,-1.92 -0.176,-1.136 0.016,-2.608 l 1.216,-10.304 z" />
        <path
           id="path172"
           style="font-style:italic;font-variant:normal;font-weight:normal;font-stretch:normal;font-family:Lato;-inkscape-font-specification:'Lato Italic';fill:#1a5fb4;fill-opacity:1"
           d="m 366.86847,95.112579 1.952,-16.224 h 1.408 q 0.96,0 0.96,0.96 l -0.24,3.152 q 1.296,-2.144 2.928,-3.232 1.632,-1.104 3.36,-1.104 1.024,0 1.792,0.416 0.784,0.4 1.264,1.184 0.496,0.784 0.672,1.936 0.176,1.136 0,2.592 l -1.216,10.32 h -2.832 l 1.216,-10.32 q 0.224,-1.92 -0.24,-2.832 -0.464,-0.928 -1.712,-0.928 -0.768,0 -1.568,0.416 -0.784,0.416 -1.52,1.184 -0.736,0.768 -1.376,1.856 -0.624,1.072 -1.072,2.4 l -0.928,8.224 z" />
        <path
           id="path174"
           style="font-style:italic;font-variant:normal;font-weight:normal;font-stretch:normal;font-family:Lato;-inkscape-font-specification:'Lato Italic';fill:#1a5fb4;fill-opacity:1"
           d="m 395.97243,92.200579 q -0.832,0.912 -1.584,1.52 -0.752,0.608 -1.504,0.976 -0.752,0.352 -1.568,0.496 -0.8,0.144 -1.728,0.144 -1.408,0 -2.496,-0.48 -1.072,-0.48 -1.808,-1.344 -0.72,-0.88 -1.104,-2.096 -0.368,-1.232 -0.368,-2.704 0,-1.968 0.608,-3.776 0.624,-1.808 1.728,-3.2 1.104,-1.392 2.624,-2.224 1.536,-0.832 3.344,-0.832 1.616,0 2.704,0.576 1.088,0.56 1.904,1.648 l -0.896,1.072 q -0.112,0.128 -0.256,0.208 -0.128,0.08 -0.304,0.08 -0.224,0 -0.448,-0.192 -0.208,-0.208 -0.56,-0.448 -0.352,-0.256 -0.88,-0.448 -0.512,-0.208 -1.328,-0.208 -1.104,0 -2.08,0.608 -0.976,0.592 -1.712,1.632 -0.736,1.04 -1.168,2.464 -0.416,1.424 -0.416,3.056 0,0.992 0.224,1.808 0.224,0.8 0.672,1.376 0.448,0.56 1.088,0.88 0.656,0.304 1.52,0.304 1.072,0 1.792,-0.32 0.736,-0.32 1.232,-0.688 0.496,-0.384 0.832,-0.704 0.352,-0.32 0.688,-0.32 0.304,0 0.544,0.272 l 0.704,0.864 z" />
        <path
           id="path176"
           style="font-style:italic;font-variant:normal;font-weight:normal;font-stretch:normal;font-family:Lato;-inkscape-font-specification:'Lato Italic';fill:#1a5fb4;fill-opacity:1"
           d="m 411.20436,82.376579 q 0,1.056 -0.432,1.952 -0.432,0.88 -1.584,1.6 -1.152,0.704 -3.168,1.232 -2.016,0.528 -5.184,0.848 -0.016,0.176 -0.016,0.352 0,0.16 0,0.336 0,2.144 0.928,3.28 0.944,1.12 2.832,1.12 0.768,0 1.36,-0.16 0.608,-0.16 1.072,-0.384 0.48,-0.24 0.832,-0.512 0.368,-0.288 0.656,-0.512 0.304,-0.24 0.56,-0.4 0.256,-0.16 0.512,-0.16 0.304,0 0.544,0.272 l 0.704,0.88 q -0.816,0.848 -1.6,1.456 -0.784,0.592 -1.6,0.992 -0.8,0.4 -1.696,0.576 -0.88,0.192 -1.904,0.192 -1.392,0 -2.496,-0.464 -1.104,-0.464 -1.872,-1.312 -0.768,-0.864 -1.184,-2.08 -0.416,-1.216 -0.416,-2.72 0,-1.248 0.256,-2.48 0.272,-1.248 0.768,-2.368 0.512,-1.12 1.232,-2.08 0.736,-0.96 1.664,-1.648 0.944,-0.704 2.064,-1.104 1.136,-0.4 2.432,-0.4 1.232,0 2.128,0.352 0.896,0.352 1.472,0.896 0.576,0.544 0.848,1.2 0.288,0.656 0.288,1.248 z m -4.896,-1.648 q -1.008,0 -1.856,0.416 -0.848,0.416 -1.504,1.152 -0.656,0.72 -1.12,1.712 -0.464,0.976 -0.72,2.112 2.464,-0.304 3.952,-0.688 1.488,-0.4 2.288,-0.848 0.8,-0.464 1.056,-0.992 0.256,-0.528 0.256,-1.104 0,-0.288 -0.128,-0.592 -0.128,-0.32 -0.416,-0.576 -0.272,-0.256 -0.72,-0.416 -0.448,-0.176 -1.088,-0.176 z" />
        <path
           id="path178"
           style="font-style:italic;font-variant:normal;font-weight:normal;font-stretch:normal;font-family:Lato;-inkscape-font-specification:'Lato Italic';fill:#1a5fb4;fill-opacity:1"
           d="m 413.37988,95.112579 1.952,-16.224 h 1.408 q 0.976,0 0.976,0.96 l -0.272,3.584 q 0.64,-1.36 1.376,-2.352 0.752,-1.008 1.568,-1.568 0.816,-0.576 1.68,-0.704 0.864,-0.128 1.76,0.256 l -0.512,2.736 q -2.096,-0.832 -3.68,0.592 -1.568,1.424 -2.576,5.2 l -0.896,7.52 z" />
        <path
           id="path180"
           style="font-style:italic;font-variant:normal;font-weight:normal;font-stretch:normal;font-family:Lato;-inkscape-font-specification:'Lato Italic';fill:#1a5fb4;fill-opacity:1"
           d="m 425.60422,92.056579 q 0,-0.096 0,-0.24 0,-0.16 0.016,-0.448 0.032,-0.288 0.08,-0.752 0.064,-0.464 0.16,-1.216 l 0.992,-8.112 h -1.808 q -0.224,0 -0.368,-0.144 -0.128,-0.16 -0.096,-0.48 l 0.128,-1.136 2.496,-0.336 1.216,-5.008 q 0.08,-0.24 0.24,-0.384 0.176,-0.16 0.432,-0.16 h 1.488 l -0.688,5.584 h 4.256 l -0.24,2.064 h -4.272 l -0.976,7.968 q -0.08,0.656 -0.128,1.056 -0.048,0.4 -0.08,0.64 -0.016,0.24 -0.032,0.336 0,0.096 0,0.144 0,0.816 0.384,1.216 0.384,0.384 1.024,0.384 0.432,0 0.736,-0.112 0.32,-0.128 0.56,-0.272 0.24,-0.144 0.4,-0.256 0.16,-0.128 0.272,-0.128 0.144,0 0.208,0.064 0.08,0.064 0.144,0.208 l 0.608,1.36 q -0.784,0.688 -1.792,1.088 -0.992,0.384 -2,0.384 -1.552,0 -2.448,-0.848 -0.88,-0.848 -0.912,-2.464 z" />
        <path
           id="path182"
           style="font-style:italic;font-variant:normal;font-weight:normal;font-stretch:normal;font-family:Lato;-inkscape-font-specification:'Lato Italic';fill:#1a5fb4;fill-opacity:1"
           d="m 447.50795,95.112579 h -1.472 q -0.56,0 -0.768,-0.288 -0.192,-0.288 -0.192,-0.704 l 0.288,-3.28 q -0.576,1.024 -1.248,1.856 -0.656,0.832 -1.408,1.424 -0.736,0.576 -1.552,0.896 -0.816,0.32 -1.696,0.32 -0.96,0 -1.744,-0.368 -0.784,-0.384 -1.344,-1.104 -0.544,-0.736 -0.848,-1.792 -0.304,-1.072 -0.304,-2.448 0,-1.44 0.352,-2.8 0.368,-1.376 1.024,-2.592 0.672,-1.216 1.6,-2.224 0.928,-1.024 2.064,-1.76 1.152,-0.752 2.464,-1.152 1.312,-0.416 2.752,-0.416 1.04,0 2.016,0.176 0.992,0.16 1.952,0.576 z m -6.976,-2.144 q 0.784,0 1.536,-0.48 0.752,-0.496 1.424,-1.36 0.672,-0.864 1.248,-2.048 0.592,-1.2 1.04,-2.624 l 0.688,-5.568 q -0.352,-0.08 -0.704,-0.096 -0.336,-0.032 -0.672,-0.032 -0.96,0 -1.856,0.32 -0.896,0.304 -1.68,0.864 -0.784,0.56 -1.424,1.344 -0.64,0.768 -1.104,1.696 -0.448,0.928 -0.704,1.984 -0.256,1.04 -0.256,2.144 0,3.856 2.464,3.856 z" />
        <path
           id="path184"
           style="font-style:italic;font-variant:normal;font-weight:normal;font-stretch:normal;font-family:Lato;-inkscape-font-specification:'Lato Italic';fill:#1a5fb4;fill-opacity:1"
           d="m 456.62751,78.904579 -1.952,16.208 h -2.8 l 1.952,-16.208 z m 1.088,-5.088 q 0,0.416 -0.176,0.784 -0.16,0.352 -0.448,0.64 -0.272,0.272 -0.64,0.432 -0.352,0.16 -0.736,0.16 -0.368,0 -0.72,-0.16 -0.352,-0.16 -0.624,-0.432 -0.256,-0.288 -0.416,-0.64 -0.16,-0.368 -0.16,-0.784 0,-0.416 0.16,-0.784 0.16,-0.368 0.432,-0.64 0.272,-0.288 0.624,-0.448 0.352,-0.176 0.72,-0.176 0.384,0 0.736,0.16 0.368,0.16 0.64,0.448 0.272,0.272 0.432,0.656 0.176,0.368 0.176,0.784 z" />
        <path
           id="path186"
           style="font-style:italic;font-variant:normal;font-weight:normal;font-stretch:normal;font-family:Lato;-inkscape-font-specification:'Lato Italic';fill:#1a5fb4;fill-opacity:1"
           d="m 459.07587,95.112579 1.952,-16.224 h 1.408 q 0.96,0 0.96,0.96 l -0.24,3.152 q 1.296,-2.144 2.928,-3.232 1.632,-1.104 3.36,-1.104 1.024,0 1.792,0.416 0.784,0.4 1.264,1.184 0.496,0.784 0.672,1.936 0.176,1.136 0,2.592 l -1.216,10.32 h -2.832 l 1.216,-10.32 q 0.224,-1.92 -0.24,-2.832 -0.464,-0.928 -1.712,-0.928 -0.768,0 -1.568,0.416 -0.784,0.416 -1.52,1.184 -0.736,0.768 -1.376,1.856 -0.624,1.072 -1.072,2.4 l -0.928,8.224 z" />
        <path
           id="path188"
           style="font-style:italic;font-variant:normal;font-weight:normal;font-stretch:normal;font-family:Lato;-inkscape-font-specification:'Lato Italic';fill:#1a5fb4;fill-opacity:1"
           d="m 477.12381,92.056579 q 0,-0.096 0,-0.24 0,-0.16 0.016,-0.448 0.032,-0.288 0.08,-0.752 0.064,-0.464 0.16,-1.216 l 0.992,-8.112 h -1.808 q -0.224,0 -0.368,-0.144 -0.128,-0.16 -0.096,-0.48 l 0.128,-1.136 2.496,-0.336 1.216,-5.008 q 0.08,-0.24 0.24,-0.384 0.176,-0.16 0.432,-0.16 h 1.488 l -0.688,5.584 h 4.256 l -0.24,2.064 h -4.272 l -0.976,7.968 q -0.08,0.656 -0.128,1.056 -0.048,0.4 -0.08,0.64 -0.016,0.24 -0.032,0.336 0,0.096 0,0.144 0,0.816 0.384,1.216 0.384,0.384 1.024,0.384 0.432,0 0.736,-0.112 0.32,-0.128 0.56,-0.272 0.24,-0.144 0.4,-0.256 0.16,-0.128 0.272,-0.128 0.144,0 0.208,0.064 0.08,0.064 0.144,0.208 l 0.608,1.36 q -0.784,0.688 -1.792,1.088 -0.992,0.384 -2,0.384 -1.552,0 -2.448,-0.848 -0.88,-0.848 -0.912,-2.464 z" />
        <path
           id="path190"
           style="font-style:italic;font-variant:normal;font-weight:normal;font-stretch:normal;font-family:Lato;-inkscape-font-specification:'Lato Italic';fill:#1a5fb4;fill-opacity:1"
           d="m 491.17156,99.944579 q -0.176,0.336001 -0.416,0.496001 -0.224,0.16 -0.576,0.16 h -2.096 l 3.52,-6.448001 -4.208,-15.248 h 2.352 q 0.352,0 0.512,0.176 0.16,0.16 0.24,0.416 l 2.608,10.208 q 0.08,0.336 0.128,0.672 0.048,0.336 0.08,0.672 0.128,-0.336 0.272,-0.672 0.16,-0.352 0.32,-0.688 l 5.12,-10.224 q 0.128,-0.256 0.352,-0.4 0.24,-0.16 0.48,-0.16 h 2.256 z" />
      </g>
    </g>
    <g
       style="font-style:normal;font-variant:normal;font-weight:normal;font-stretch:normal;font-size:32px;line-height:1.25;font-family:Gentium;-inkscape-font-specification:Gentium;letter-spacing:0px;word-spacing:0px;display:inline;fill:#000000;fill-opacity:1;stroke:none"
       id="text88"
       aria-label="Electric vs Thermal vehicle">
      <path
         id="path92"
         style="font-style:normal;font-variant:normal;font-weight:normal;font-stretch:normal;font-family:Lato;-inkscape-font-specification:Lato"
         d="m 152.18396,28.184595 v 2.528 h -11.024 v 7.616 h 8.928 v 2.432 h -8.928 v 7.824 h 11.04 l -0.016,2.528 h -14.128 v -22.928 z" />
      <path
         id="path94"
         style="font-style:normal;font-variant:normal;font-weight:normal;font-stretch:normal;font-family:Lato;-inkscape-font-specification:Lato"
         d="m 158.80843,27.544595 v 23.568 h -2.848 v -23.568 z" />
      <path
         id="path96"
         style="font-style:normal;font-variant:normal;font-weight:normal;font-stretch:normal;font-family:Lato;-inkscape-font-specification:Lato"
         d="m 170.05619,34.648595 q 1.456,0 2.688,0.496 1.248,0.48 2.144,1.408 0.912,0.912 1.424,2.272 0.512,1.344 0.512,3.072 0,0.672 -0.144,0.896 -0.144,0.224 -0.544,0.224 h -10.832 q 0.032,1.536 0.416,2.672 0.384,1.136 1.056,1.904 0.672,0.752 1.6,1.136 0.928,0.368 2.08,0.368 1.072,0 1.84,-0.24 0.784,-0.256 1.344,-0.544 0.56,-0.288 0.928,-0.528 0.384,-0.256 0.656,-0.256 0.352,0 0.544,0.272 l 0.8,1.04 q -0.528,0.64 -1.264,1.12 -0.736,0.464 -1.584,0.768 -0.832,0.304 -1.728,0.448 -0.896,0.16 -1.776,0.16 -1.68,0 -3.104,-0.56 -1.408,-0.576 -2.448,-1.664 -1.024,-1.104 -1.6,-2.72 -0.576,-1.616 -0.576,-3.712 0,-1.696 0.512,-3.168 0.528,-1.472 1.504,-2.544 0.976,-1.088 2.384,-1.696 1.408,-0.624 3.168,-0.624 z m 0.064,2.096 q -2.064,0 -3.248,1.2 -1.184,1.184 -1.472,3.296 h 8.864 q 0,-0.992 -0.288,-1.808 -0.272,-0.832 -0.816,-1.424 -0.528,-0.608 -1.296,-0.928 -0.768,-0.336 -1.744,-0.336 z" />
      <path
         id="path98"
         style="font-style:normal;font-variant:normal;font-weight:normal;font-stretch:normal;font-family:Lato;-inkscape-font-specification:Lato"
         d="m 191.59267,37.784595 q -0.128,0.176 -0.256,0.272 -0.128,0.096 -0.352,0.096 -0.24,0 -0.528,-0.192 -0.288,-0.208 -0.72,-0.448 -0.416,-0.24 -1.04,-0.432 -0.608,-0.208 -1.504,-0.208 -1.2,0 -2.112,0.432 -0.912,0.416 -1.536,1.216 -0.608,0.8 -0.928,1.936 -0.304,1.136 -0.304,2.544 0,1.472 0.336,2.624 0.336,1.136 0.944,1.92 0.624,0.768 1.488,1.184 0.88,0.4 1.968,0.4 1.04,0 1.712,-0.24 0.672,-0.256 1.104,-0.56 0.448,-0.304 0.736,-0.544 0.304,-0.256 0.592,-0.256 0.352,0 0.544,0.272 l 0.8,1.04 q -0.528,0.656 -1.2,1.12 -0.672,0.464 -1.456,0.784 -0.768,0.304 -1.616,0.448 -0.848,0.144 -1.728,0.144 -1.52,0 -2.832,-0.56 -1.296,-0.56 -2.256,-1.616 -0.96,-1.072 -1.504,-2.624 -0.544,-1.552 -0.544,-3.536 0,-1.808 0.496,-3.344 0.512,-1.536 1.472,-2.64 0.976,-1.12 2.384,-1.744 1.424,-0.624 3.264,-0.624 1.712,0 3.008,0.56 1.312,0.544 2.32,1.552 z" />
      <path
         id="path100"
         style="font-style:normal;font-variant:normal;font-weight:normal;font-stretch:normal;font-family:Lato;-inkscape-font-specification:Lato"
         d="m 200.56894,51.368595 q -1.92,0 -2.96,-1.072 -1.024,-1.072 -1.024,-3.088 v -9.92 h -1.952 q -0.256,0 -0.432,-0.144 -0.176,-0.16 -0.176,-0.48 v -1.136 l 2.656,-0.336 0.656,-5.008 q 0.048,-0.24 0.208,-0.384 0.176,-0.16 0.448,-0.16 h 1.44 v 5.584 h 4.688 v 2.064 h -4.688 v 9.728 q 0,1.024 0.496,1.52 0.496,0.496 1.28,0.496 0.448,0 0.768,-0.112 0.336,-0.128 0.576,-0.272 0.24,-0.144 0.4,-0.256 0.176,-0.128 0.304,-0.128 0.224,0 0.4,0.272 l 0.832,1.36 q -0.736,0.688 -1.776,1.088 -1.04,0.384 -2.144,0.384 z" />
      <path
         id="path102"
         style="font-style:normal;font-variant:normal;font-weight:normal;font-stretch:normal;font-family:Lato;-inkscape-font-specification:Lato"
         d="m 207.06462,51.112595 v -16.208 h 1.632 q 0.464,0 0.64,0.176 0.176,0.176 0.24,0.608 l 0.176,2.464 q 0.768,-1.664 1.888,-2.592 1.136,-0.944 2.752,-0.944 0.512,0 0.976,0.112 0.48,0.112 0.848,0.352 l -0.208,2.128 q -0.096,0.4 -0.48,0.4 -0.224,0 -0.656,-0.096 -0.432,-0.096 -0.976,-0.096 -0.768,0 -1.376,0.24 -0.608,0.224 -1.088,0.672 -0.464,0.432 -0.832,1.072 -0.368,0.64 -0.672,1.472 v 10.24 z" />
      <path
         id="path104"
         style="font-style:normal;font-variant:normal;font-weight:normal;font-stretch:normal;font-family:Lato;-inkscape-font-specification:Lato"
         d="m 221.72106,34.904595 v 16.208 h -2.848 v -16.208 z m 0.608,-5.088 q 0,0.416 -0.176,0.784 -0.16,0.352 -0.448,0.64 -0.272,0.272 -0.656,0.432 -0.368,0.16 -0.784,0.16 -0.416,0 -0.784,-0.16 -0.352,-0.16 -0.624,-0.432 -0.272,-0.288 -0.432,-0.64 -0.16,-0.368 -0.16,-0.784 0,-0.416 0.16,-0.784 0.16,-0.384 0.432,-0.656 0.272,-0.288 0.624,-0.448 0.368,-0.16 0.784,-0.16 0.416,0 0.784,0.16 0.384,0.16 0.656,0.448 0.288,0.272 0.448,0.656 0.176,0.368 0.176,0.784 z" />
      <path
         id="path106"
         style="font-style:normal;font-variant:normal;font-weight:normal;font-stretch:normal;font-family:Lato;-inkscape-font-specification:Lato"
         d="m 237.67275,37.784595 q -0.128,0.176 -0.256,0.272 -0.128,0.096 -0.352,0.096 -0.24,0 -0.528,-0.192 -0.288,-0.208 -0.72,-0.448 -0.416,-0.24 -1.04,-0.432 -0.608,-0.208 -1.504,-0.208 -1.2,0 -2.112,0.432 -0.912,0.416 -1.536,1.216 -0.608,0.8 -0.928,1.936 -0.304,1.136 -0.304,2.544 0,1.472 0.336,2.624 0.336,1.136 0.944,1.92 0.624,0.768 1.488,1.184 0.88,0.4 1.968,0.4 1.04,0 1.712,-0.24 0.672,-0.256 1.104,-0.56 0.448,-0.304 0.736,-0.544 0.304,-0.256 0.592,-0.256 0.352,0 0.544,0.272 l 0.8,1.04 q -0.528,0.656 -1.2,1.12 -0.672,0.464 -1.456,0.784 -0.768,0.304 -1.616,0.448 -0.848,0.144 -1.728,0.144 -1.52,0 -2.832,-0.56 -1.296,-0.56 -2.256,-1.616 -0.96,-1.072 -1.504,-2.624 -0.544,-1.552 -0.544,-3.536 0,-1.808 0.496,-3.344 0.512,-1.536 1.472,-2.64 0.976,-1.12 2.384,-1.744 1.424,-0.624 3.264,-0.624 1.712,0 3.008,0.56 1.312,0.544 2.32,1.552 z" />
      <path
         id="path108"
         style="font-style:normal;font-variant:normal;font-weight:bold;font-stretch:normal;font-family:Lato;-inkscape-font-specification:'Lato Bold'"
         d="m 247.75341,34.696595 h 3.264 q 0.448,0 0.736,0.208 0.304,0.208 0.4,0.528 l 3.168,8.768 q 0.256,0.768 0.432,1.504 0.192,0.736 0.352,1.472 0.16,-0.736 0.352,-1.472 0.192,-0.736 0.464,-1.504 l 3.232,-8.768 q 0.112,-0.32 0.4,-0.528 0.288,-0.208 0.688,-0.208 h 3.12 l -6.512,16.416 h -3.584 z" />
      <path
         id="path110"
         style="font-style:normal;font-variant:normal;font-weight:bold;font-stretch:normal;font-family:Lato;-inkscape-font-specification:'Lato Bold'"
         d="m 276.08992,37.896595 q -0.16,0.256 -0.336,0.368 -0.176,0.096 -0.448,0.096 -0.288,0 -0.624,-0.16 -0.32,-0.16 -0.752,-0.352 -0.432,-0.208 -0.992,-0.368 -0.544,-0.16 -1.296,-0.16 -1.168,0 -1.84,0.496 -0.656,0.496 -0.656,1.296 0,0.528 0.336,0.896 0.352,0.352 0.912,0.624 0.576,0.272 1.296,0.496 0.72,0.208 1.456,0.464 0.752,0.256 1.472,0.592 0.72,0.32 1.28,0.832 0.576,0.496 0.912,1.2 0.352,0.704 0.352,1.696 0,1.184 -0.432,2.192 -0.416,0.992 -1.248,1.728 -0.832,0.72 -2.064,1.136 -1.216,0.4 -2.816,0.4 -0.848,0 -1.664,-0.16 -0.8,-0.144 -1.552,-0.416 -0.736,-0.272 -1.376,-0.64 -0.624,-0.368 -1.104,-0.8 l 0.912,-1.504 q 0.176,-0.272 0.416,-0.416 0.24,-0.144 0.608,-0.144 0.368,0 0.688,0.208 0.336,0.208 0.768,0.448 0.432,0.24 1.008,0.448 0.592,0.208 1.488,0.208 0.704,0 1.2,-0.16 0.512,-0.176 0.832,-0.448 0.336,-0.272 0.48,-0.624 0.16,-0.368 0.16,-0.752 0,-0.576 -0.352,-0.944 -0.336,-0.368 -0.912,-0.64 -0.56,-0.272 -1.296,-0.48 -0.72,-0.224 -1.488,-0.48 -0.752,-0.256 -1.488,-0.592 -0.72,-0.352 -1.296,-0.88 -0.56,-0.528 -0.912,-1.296 -0.336,-0.768 -0.336,-1.856 0,-1.008 0.4,-1.92 0.4,-0.912 1.168,-1.584 0.784,-0.688 1.936,-1.088 1.168,-0.416 2.688,-0.416 1.696,0 3.088,0.56 1.392,0.56 2.32,1.472 z" />
      <path
         id="path112"
         style="font-style:normal;font-variant:normal;font-weight:normal;font-stretch:normal;font-family:Lato;-inkscape-font-specification:Lato"
         d="m 303.85073,28.184595 v 2.608 h -7.424 v 20.32 h -3.088 v -20.32 h -7.44 v -2.608 z" />
      <path
         id="path114"
         style="font-style:normal;font-variant:normal;font-weight:normal;font-stretch:normal;font-family:Lato;-inkscape-font-specification:Lato"
         d="m 306.29924,51.112595 v -23.568 h 2.864 v 9.536 q 1.04,-1.104 2.304,-1.76 1.264,-0.672 2.912,-0.672 1.328,0 2.336,0.448 1.024,0.432 1.696,1.248 0.688,0.8 1.04,1.936 0.352,1.136 0.352,2.512 v 10.32 h -2.864 v -10.32 q 0,-1.84 -0.848,-2.848 -0.832,-1.024 -2.544,-1.024 -1.28,0 -2.384,0.608 -1.088,0.608 -2,1.648 v 11.936 z" />
      <path
         id="path116"
         style="font-style:normal;font-variant:normal;font-weight:normal;font-stretch:normal;font-family:Lato;-inkscape-font-specification:Lato"
         d="m 330.79569,34.648595 q 1.456,0 2.688,0.496 1.248,0.48 2.144,1.408 0.912,0.912 1.424,2.272 0.512,1.344 0.512,3.072 0,0.672 -0.144,0.896 -0.144,0.224 -0.544,0.224 h -10.832 q 0.032,1.536 0.416,2.672 0.384,1.136 1.056,1.904 0.672,0.752 1.6,1.136 0.928,0.368 2.08,0.368 1.072,0 1.84,-0.24 0.784,-0.256 1.344,-0.544 0.56,-0.288 0.928,-0.528 0.384,-0.256 0.656,-0.256 0.352,0 0.544,0.272 l 0.8,1.04 q -0.528,0.64 -1.264,1.12 -0.736,0.464 -1.584,0.768 -0.832,0.304 -1.728,0.448 -0.896,0.16 -1.776,0.16 -1.68,0 -3.104,-0.56 -1.408,-0.576 -2.448,-1.664 -1.024,-1.104 -1.6,-2.72 -0.576,-1.616 -0.576,-3.712 0,-1.696 0.512,-3.168 0.528,-1.472 1.504,-2.544 0.976,-1.088 2.384,-1.696 1.408,-0.624 3.168,-0.624 z m 0.064,2.096 q -2.064,0 -3.248,1.2 -1.184,1.184 -1.472,3.296 h 8.864 q 0,-0.992 -0.288,-1.808 -0.272,-0.832 -0.816,-1.424 -0.528,-0.608 -1.296,-0.928 -0.768,-0.336 -1.744,-0.336 z" />
      <path
         id="path118"
         style="font-style:normal;font-variant:normal;font-weight:normal;font-stretch:normal;font-family:Lato;-inkscape-font-specification:Lato"
         d="m 341.05217,51.112595 v -16.208 h 1.632 q 0.464,0 0.64,0.176 0.176,0.176 0.24,0.608 l 0.176,2.464 q 0.768,-1.664 1.888,-2.592 1.136,-0.944 2.752,-0.944 0.512,0 0.976,0.112 0.48,0.112 0.848,0.352 l -0.208,2.128 q -0.096,0.4 -0.48,0.4 -0.224,0 -0.656,-0.096 -0.432,-0.096 -0.976,-0.096 -0.768,0 -1.376,0.24 -0.608,0.224 -1.088,0.672 -0.464,0.432 -0.832,1.072 -0.368,0.64 -0.672,1.472 v 10.24 z" />
      <path
         id="path120"
         style="font-style:normal;font-variant:normal;font-weight:normal;font-stretch:normal;font-family:Lato;-inkscape-font-specification:Lato"
         d="m 352.70061,51.112595 v -16.208 h 1.712 q 0.608,0 0.752,0.592 l 0.208,1.664 q 0.896,-1.104 2.016,-1.808 1.12,-0.704 2.592,-0.704 1.632,0 2.64,0.912 1.024,0.912 1.472,2.464 0.352,-0.88 0.896,-1.52 0.56,-0.64 1.248,-1.056 0.688,-0.416 1.456,-0.608 0.784,-0.192 1.584,-0.192 1.28,0 2.272,0.416 1.008,0.4 1.696,1.184 0.704,0.784 1.072,1.936 0.368,1.136 0.368,2.608 v 10.32 h -2.864 v -10.32 q 0,-1.904 -0.832,-2.88 -0.832,-0.992 -2.4,-0.992 -0.704,0 -1.344,0.256 -0.624,0.24 -1.104,0.72 -0.48,0.48 -0.768,1.216 -0.272,0.72 -0.272,1.68 v 10.32 h -2.864 v -10.32 q 0,-1.952 -0.784,-2.912 -0.784,-0.96 -2.288,-0.96 -1.056,0 -1.952,0.576 -0.896,0.56 -1.648,1.536 v 12.08 z" />
      <path
         id="path122"
         style="font-style:normal;font-variant:normal;font-weight:normal;font-stretch:normal;font-family:Lato;-inkscape-font-specification:Lato"
         d="m 389.32492,51.112595 q -0.416,0 -0.64,-0.128 -0.224,-0.144 -0.352,-0.544 l -0.32,-1.52 q -0.64,0.576 -1.264,1.04 -0.608,0.448 -1.28,0.768 -0.656,0.304 -1.424,0.464 -0.752,0.176 -1.68,0.176 -0.944,0 -1.776,-0.256 -0.832,-0.272 -1.456,-0.8 -0.608,-0.528 -0.976,-1.328 -0.352,-0.816 -0.352,-1.92 0,-0.96 0.528,-1.84 0.528,-0.896 1.712,-1.584 1.184,-0.688 3.088,-1.12 1.904,-0.448 4.672,-0.512 v -1.264 q 0,-1.888 -0.816,-2.848 -0.816,-0.976 -2.384,-0.976 -1.056,0 -1.776,0.272 -0.704,0.256 -1.232,0.592 -0.512,0.32 -0.896,0.592 -0.368,0.256 -0.736,0.256 -0.288,0 -0.496,-0.144 -0.208,-0.16 -0.352,-0.384 l -0.512,-0.912 q 1.344,-1.296 2.896,-1.936 1.552,-0.64 3.44,-0.64 1.36,0 2.416,0.448 1.056,0.448 1.776,1.248 0.72,0.8 1.088,1.936 0.368,1.136 0.368,2.496 v 10.368 z m -6.112,-1.744 q 0.752,0 1.376,-0.144 0.624,-0.16 1.168,-0.432 0.56,-0.288 1.056,-0.688 0.512,-0.416 0.992,-0.928 v -3.36 q -1.968,0.064 -3.36,0.32 -1.376,0.24 -2.256,0.64 -0.864,0.4 -1.264,0.944 -0.384,0.544 -0.384,1.216 0,0.64 0.208,1.104 0.208,0.464 0.56,0.768 0.368,0.288 0.848,0.432 0.496,0.128 1.056,0.128 z" />
      <path
         id="path124"
         style="font-style:normal;font-variant:normal;font-weight:normal;font-stretch:normal;font-family:Lato;-inkscape-font-specification:Lato"
         d="m 397.86922,27.544595 v 23.568 h -2.848 v -23.568 z" />
      <path
         id="path126"
         style="font-style:normal;font-variant:normal;font-weight:normal;font-stretch:normal;font-family:Lato;-inkscape-font-specification:Lato"
         d="m 408.01336,34.904595 h 2.32 q 0.352,0 0.576,0.176 0.224,0.176 0.304,0.416 l 4.112,10.432 q 0.192,0.592 0.336,1.152 0.144,0.56 0.272,1.12 0.128,-0.56 0.272,-1.12 0.144,-0.56 0.352,-1.152 l 4.16,-10.432 q 0.096,-0.256 0.32,-0.416 0.224,-0.176 0.528,-0.176 h 2.224 l -6.608,16.208 h -2.56 z" />
      <path
         id="path128"
         style="font-style:normal;font-variant:normal;font-weight:normal;font-stretch:normal;font-family:Lato;-inkscape-font-specification:Lato"
         d="m 432.60508,34.648595 q 1.456,0 2.688,0.496 1.248,0.48 2.144,1.408 0.912,0.912 1.424,2.272 0.512,1.344 0.512,3.072 0,0.672 -0.144,0.896 -0.144,0.224 -0.544,0.224 h -10.832 q 0.032,1.536 0.416,2.672 0.384,1.136 1.056,1.904 0.672,0.752 1.6,1.136 0.928,0.368 2.08,0.368 1.072,0 1.84,-0.24 0.784,-0.256 1.344,-0.544 0.56,-0.288 0.928,-0.528 0.384,-0.256 0.656,-0.256 0.352,0 0.544,0.272 l 0.8,1.04 q -0.528,0.64 -1.264,1.12 -0.736,0.464 -1.584,0.768 -0.832,0.304 -1.728,0.448 -0.896,0.16 -1.776,0.16 -1.68,0 -3.104,-0.56 -1.408,-0.576 -2.448,-1.664 -1.024,-1.104 -1.6,-2.72 -0.576,-1.616 -0.576,-3.712 0,-1.696 0.512,-3.168 0.528,-1.472 1.504,-2.544 0.976,-1.088 2.384,-1.696 1.408,-0.624 3.168,-0.624 z m 0.064,2.096 q -2.064,0 -3.248,1.2 -1.184,1.184 -1.472,3.296 h 8.864 q 0,-0.992 -0.288,-1.808 -0.272,-0.832 -0.816,-1.424 -0.528,-0.608 -1.296,-0.928 -0.768,-0.336 -1.744,-0.336 z" />
      <path
         id="path130"
         style="font-style:normal;font-variant:normal;font-weight:normal;font-stretch:normal;font-family:Lato;-inkscape-font-specification:Lato"
         d="m 442.86156,51.112595 v -23.568 h 2.864 v 9.536 q 1.04,-1.104 2.304,-1.76 1.264,-0.672 2.912,-0.672 1.328,0 2.336,0.448 1.024,0.432 1.696,1.248 0.688,0.8 1.04,1.936 0.352,1.136 0.352,2.512 v 10.32 h -2.864 v -10.32 q 0,-1.84 -0.848,-2.848 -0.832,-1.024 -2.544,-1.024 -1.28,0 -2.384,0.608 -1.088,0.608 -2,1.648 v 11.936 z" />
      <path
         id="path132"
         style="font-style:normal;font-variant:normal;font-weight:normal;font-stretch:normal;font-family:Lato;-inkscape-font-specification:Lato"
         d="m 463.72601,34.904595 v 16.208 h -2.848 v -16.208 z m 0.608,-5.088 q 0,0.416 -0.176,0.784 -0.16,0.352 -0.448,0.64 -0.272,0.272 -0.656,0.432 -0.368,0.16 -0.784,0.16 -0.416,0 -0.784,-0.16 -0.352,-0.16 -0.624,-0.432 -0.272,-0.288 -0.432,-0.64 -0.16,-0.368 -0.16,-0.784 0,-0.416 0.16,-0.784 0.16,-0.384 0.432,-0.656 0.272,-0.288 0.624,-0.448 0.368,-0.16 0.784,-0.16 0.416,0 0.784,0.16 0.384,0.16 0.656,0.448 0.288,0.272 0.448,0.656 0.176,0.368 0.176,0.784 z" />
      <path
         id="path134"
         style="font-style:normal;font-variant:normal;font-weight:normal;font-stretch:normal;font-family:Lato;-inkscape-font-specification:Lato"
         d="m 479.67769,37.784595 q -0.128,0.176 -0.256,0.272 -0.128,0.096 -0.352,0.096 -0.24,0 -0.528,-0.192 -0.288,-0.208 -0.72,-0.448 -0.416,-0.24 -1.04,-0.432 -0.608,-0.208 -1.504,-0.208 -1.2,0 -2.112,0.432 -0.912,0.416 -1.536,1.216 -0.608,0.8 -0.928,1.936 -0.304,1.136 -0.304,2.544 0,1.472 0.336,2.624 0.336,1.136 0.944,1.92 0.624,0.768 1.488,1.184 0.88,0.4 1.968,0.4 1.04,0 1.712,-0.24 0.672,-0.256 1.104,-0.56 0.448,-0.304 0.736,-0.544 0.304,-0.256 0.592,-0.256 0.352,0 0.544,0.272 l 0.8,1.04 q -0.528,0.656 -1.2,1.12 -0.672,0.464 -1.456,0.784 -0.768,0.304 -1.616,0.448 -0.848,0.144 -1.728,0.144 -1.52,0 -2.832,-0.56 -1.296,-0.56 -2.256,-1.616 -0.96,-1.072 -1.504,-2.624 -0.544,-1.552 -0.544,-3.536 0,-1.808 0.496,-3.344 0.512,-1.536 1.472,-2.64 0.976,-1.12 2.384,-1.744 1.424,-0.624 3.264,-0.624 1.712,0 3.008,0.56 1.312,0.544 2.32,1.552 z" />
      <path
         id="path136"
         style="font-style:normal;font-variant:normal;font-weight:normal;font-stretch:normal;font-family:Lato;-inkscape-font-specification:Lato"
         d="m 486.62197,27.544595 v 23.568 h -2.848 v -23.568 z" />
      <path
         id="path138"
         style="font-style:normal;font-variant:normal;font-weight:normal;font-stretch:normal;font-family:Lato;-inkscape-font-specification:Lato"
         d="m 497.86972,34.648595 q 1.456,0 2.688,0.496 1.248,0.48 2.144,1.408 0.912,0.912 1.424,2.272 0.512,1.344 0.512,3.072 0,0.672 -0.144,0.896 -0.144,0.224 -0.544,0.224 h -10.832 q 0.032,1.536 0.416,2.672 0.384,1.136 1.056,1.904 0.672,0.752 1.6,1.136 0.928,0.368 2.08,0.368 1.072,0 1.84,-0.24 0.784,-0.256 1.344,-0.544 0.56,-0.288 0.928,-0.528 0.384,-0.256 0.656,-0.256 0.352,0 0.544,0.272 l 0.8,1.04 q -0.528,0.64 -1.264,1.12 -0.736,0.464 -1.584,0.768 -0.832,0.304 -1.728,0.448 -0.896,0.16 -1.776,0.16 -1.68,0 -3.104,-0.56 -1.408,-0.576 -2.448,-1.664 -1.024,-1.104 -1.6,-2.72 -0.576,-1.616 -0.576,-3.712 0,-1.696 0.512,-3.168 0.528,-1.472 1.504,-2.544 0.976,-1.088 2.384,-1.696 1.408,-0.624 3.168,-0.624 z m 0.064,2.096 q -2.064,0 -3.248,1.2 -1.184,1.184 -1.472,3.296 h 8.864 q 0,-0.992 -0.288,-1.808 -0.272,-0.832 -0.816,-1.424 -0.528,-0.608 -1.296,-0.928 -0.768,-0.336 -1.744,-0.336 z" />
    </g>
  </g>
</svg>
